<mxfile host="app.diagrams.net" modified="2021-01-27T01:13:27.295Z" agent="5.0 (Windows NT 10.0; Win64; x64) AppleWebKit/537.36 (KHTML, like Gecko) Chrome/88.0.4324.104 Safari/537.36" etag="vIluTjEcn9SlfyZ32BNP" version="14.2.7" type="github">
  <diagram id="44VYiNDlmVQzma3DV2dp" name="第 1 页">
    <mxGraphModel dx="914" dy="1685" grid="1" gridSize="10" guides="1" tooltips="1" connect="1" arrows="1" fold="1" page="1" pageScale="1" pageWidth="827" pageHeight="1169" background="none" math="0" shadow="0">
      <root>
        <mxCell id="0" />
        <mxCell id="1" parent="0" />
        <mxCell id="ABihLQ6Q6StDGXam-ak8-9" style="edgeStyle=orthogonalEdgeStyle;rounded=0;orthogonalLoop=1;jettySize=auto;html=1;entryX=0;entryY=0.5;entryDx=0;entryDy=0;" edge="1" parent="1" source="ABihLQ6Q6StDGXam-ak8-1" target="ABihLQ6Q6StDGXam-ak8-2">
          <mxGeometry relative="1" as="geometry" />
        </mxCell>
        <mxCell id="ABihLQ6Q6StDGXam-ak8-10" value="yj-dashboard" style="edgeLabel;html=1;align=center;verticalAlign=middle;resizable=0;points=[];" vertex="1" connectable="0" parent="ABihLQ6Q6StDGXam-ak8-9">
          <mxGeometry x="0.2487" relative="1" as="geometry">
            <mxPoint as="offset" />
          </mxGeometry>
        </mxCell>
        <mxCell id="ABihLQ6Q6StDGXam-ak8-1" value="&lt;font style=&quot;font-size: 14px&quot;&gt;前端&lt;br&gt;（VUE）&lt;br&gt;&lt;/font&gt;" style="rounded=0;whiteSpace=wrap;html=1;fillColor=#d5e8d4;strokeColor=#82b366;" vertex="1" parent="1">
          <mxGeometry x="40" y="130" width="120" height="260" as="geometry" />
        </mxCell>
        <mxCell id="ABihLQ6Q6StDGXam-ak8-12" value="" style="edgeStyle=orthogonalEdgeStyle;rounded=0;orthogonalLoop=1;jettySize=auto;html=1;" edge="1" parent="1" source="ABihLQ6Q6StDGXam-ak8-2" target="ABihLQ6Q6StDGXam-ak8-11">
          <mxGeometry relative="1" as="geometry" />
        </mxCell>
        <mxCell id="ABihLQ6Q6StDGXam-ak8-2" value="GateWay&lt;br&gt;(微服务网关)" style="whiteSpace=wrap;html=1;aspect=fixed;fillColor=#fff2cc;strokeColor=#d6b656;" vertex="1" parent="1">
          <mxGeometry x="310" y="197.5" width="125" height="125" as="geometry" />
        </mxCell>
        <mxCell id="ABihLQ6Q6StDGXam-ak8-15" style="edgeStyle=orthogonalEdgeStyle;rounded=0;orthogonalLoop=1;jettySize=auto;html=1;exitX=0.5;exitY=0;exitDx=0;exitDy=0;entryX=0.5;entryY=0;entryDx=0;entryDy=0;" edge="1" parent="1" source="ABihLQ6Q6StDGXam-ak8-11" target="ABihLQ6Q6StDGXam-ak8-1">
          <mxGeometry relative="1" as="geometry">
            <Array as="points">
              <mxPoint x="560" y="90" />
              <mxPoint x="100" y="90" />
            </Array>
          </mxGeometry>
        </mxCell>
        <mxCell id="ABihLQ6Q6StDGXam-ak8-22" style="edgeStyle=orthogonalEdgeStyle;rounded=0;orthogonalLoop=1;jettySize=auto;html=1;exitX=0.25;exitY=1;exitDx=0;exitDy=0;entryX=0.5;entryY=0;entryDx=0;entryDy=0;entryPerimeter=0;" edge="1" parent="1" source="ABihLQ6Q6StDGXam-ak8-11" target="ABihLQ6Q6StDGXam-ak8-21">
          <mxGeometry relative="1" as="geometry" />
        </mxCell>
        <mxCell id="ABihLQ6Q6StDGXam-ak8-23" value="updateDB" style="edgeLabel;html=1;align=center;verticalAlign=middle;resizable=0;points=[];" vertex="1" connectable="0" parent="ABihLQ6Q6StDGXam-ak8-22">
          <mxGeometry x="-0.1143" y="1" relative="1" as="geometry">
            <mxPoint as="offset" />
          </mxGeometry>
        </mxCell>
        <mxCell id="ABihLQ6Q6StDGXam-ak8-11" value="yj-dashboard-server" style="whiteSpace=wrap;html=1;fillColor=#e1d5e7;strokeColor=#9673a6;" vertex="1" parent="1">
          <mxGeometry x="500" y="230" width="120" height="60" as="geometry" />
        </mxCell>
        <mxCell id="ABihLQ6Q6StDGXam-ak8-27" style="edgeStyle=orthogonalEdgeStyle;rounded=0;orthogonalLoop=1;jettySize=auto;html=1;" edge="1" parent="1" source="ABihLQ6Q6StDGXam-ak8-13" target="ABihLQ6Q6StDGXam-ak8-14">
          <mxGeometry relative="1" as="geometry" />
        </mxCell>
        <mxCell id="ABihLQ6Q6StDGXam-ak8-13" value="yj-xxl-job" style="rounded=0;whiteSpace=wrap;html=1;fillColor=#fff2cc;strokeColor=#d6b656;" vertex="1" parent="1">
          <mxGeometry x="640" y="480" width="120" height="60" as="geometry" />
        </mxCell>
        <mxCell id="ABihLQ6Q6StDGXam-ak8-20" style="edgeStyle=orthogonalEdgeStyle;rounded=0;orthogonalLoop=1;jettySize=auto;html=1;entryX=0.5;entryY=1;entryDx=0;entryDy=0;" edge="1" parent="1" source="ABihLQ6Q6StDGXam-ak8-14" target="ABihLQ6Q6StDGXam-ak8-11">
          <mxGeometry relative="1" as="geometry" />
        </mxCell>
        <mxCell id="ABihLQ6Q6StDGXam-ak8-14" value="yj-message" style="rounded=0;whiteSpace=wrap;html=1;" vertex="1" parent="1">
          <mxGeometry x="640" y="370" width="120" height="60" as="geometry" />
        </mxCell>
        <mxCell id="ABihLQ6Q6StDGXam-ak8-21" value="" style="shape=cylinder3;whiteSpace=wrap;html=1;boundedLbl=1;backgroundOutline=1;size=15;" vertex="1" parent="1">
          <mxGeometry x="354" y="460" width="60" height="80" as="geometry" />
        </mxCell>
        <mxCell id="ABihLQ6Q6StDGXam-ak8-24" value="&lt;font style=&quot;font-size: 12px&quot;&gt;1、yj-xxl-job下发定时任务，定时收集相关资源信息&lt;br&gt;2、每次收集到的结果通发送至yj-message的消息队列中&lt;br&gt;3、yj-dashboar监听消息队列，更新db数据库&lt;br&gt;4、前端直接访问yj-dashboard的接口进行展示&lt;br&gt;5、&lt;span style=&quot;text-align: center&quot;&gt;旧系统中已有的接口由dashboard采用&lt;/span&gt;&lt;span style=&quot;text-align: center&quot;&gt;http方式调用yj-web的相关接口&lt;/span&gt;&lt;br&gt;&lt;/font&gt;" style="text;html=1;strokeColor=#d6b656;fillColor=#fff2cc;align=left;verticalAlign=middle;whiteSpace=wrap;rounded=0;" vertex="1" parent="1">
          <mxGeometry x="240" y="-30" width="390" height="70" as="geometry" />
        </mxCell>
        <mxCell id="ABihLQ6Q6StDGXam-ak8-28" style="edgeStyle=orthogonalEdgeStyle;rounded=0;orthogonalLoop=1;jettySize=auto;html=1;entryX=1;entryY=0.5;entryDx=0;entryDy=0;" edge="1" parent="1" source="ABihLQ6Q6StDGXam-ak8-26" target="ABihLQ6Q6StDGXam-ak8-11">
          <mxGeometry relative="1" as="geometry">
            <Array as="points">
              <mxPoint x="730" y="160" />
              <mxPoint x="730" y="260" />
            </Array>
          </mxGeometry>
        </mxCell>
        <mxCell id="ABihLQ6Q6StDGXam-ak8-26" value="yj-api-server&lt;br&gt;(原yj-web)" style="rounded=0;whiteSpace=wrap;html=1;" vertex="1" parent="1">
          <mxGeometry x="780" y="130" width="120" height="60" as="geometry" />
        </mxCell>
        <mxCell id="ABihLQ6Q6StDGXam-ak8-29" value="旧系统中已有的接口由dashboard采用&lt;br&gt;http方式调用yj-web的相关接口" style="text;html=1;align=center;verticalAlign=middle;resizable=0;points=[];autosize=1;" vertex="1" parent="1">
          <mxGeometry x="650" y="225" width="220" height="30" as="geometry" />
        </mxCell>
      </root>
    </mxGraphModel>
  </diagram>
</mxfile>
